<svg id="Layer_1" data-name="Layer 1" xmlns="http://www.w3.org/2000/svg" viewBox="0 0 987.29 987.38"><defs><style>.cls-1{fill:#04984a;}.cls-2{fill:#ec2227;}.cls-3{fill:#05984a;}.cls-4{fill:#05984b;}.cls-5{fill:#07994c;}.cls-6{fill:#0a9a4e;}.cls-7{fill:#f17174;}.cls-8{fill:#f1686c;}.cls-9{fill:#9ee1ca;}.cls-10{fill:#f6989b;}.cls-11{fill:#f47478;}.cls-12{fill:#f48184;}.cls-13{fill:#fcee23;}.cls-14{fill:#fcec23;}.cls-15{fill:#ec2727;}.cls-16{fill:#fce923;}.cls-17{fill:#fbe223;}.cls-18{fill:#ee3227;}.cls-19{fill:#ef4626;}.cls-20{fill:#f04e26;}.cls-21{fill:#f9ce23;}.cls-22{fill:#f15526;}.cls-23{fill:#f05226;}.cls-24{fill:#f46d26;}.cls-25{fill:#ef4426;}</style></defs><path class="cls-1" d="M500.19,6C227.85,5.8,5.71,227,6.13,499.83c-.33,270,218.38,493.06,493,493.5,272.85.44,494.36-220.24,494.34-493.61C993.4,224.18,769.54,6.1,500.19,6Zm-.61,977c-266.79-.06-483-216.7-483.08-483.49C16.45,234.54,231.25,16.38,499.93,16.4c266.91,0,483.13,216.54,483.11,483.42S766.39,983,499.58,983Z" transform="translate(-6.13 -5.95)"/><path class="cls-2" d="M829.91,499.62c-.63,185.06-150.6,330.25-330.51,330-182.79-.29-330.06-149-329.72-330.67S317.81,169.34,500.1,169.44C679.6,169.54,829.41,314.59,829.91,499.62Z" transform="translate(-6.13 -5.95)"/><path class="cls-1" d="M719.3,864.85c-2.6-4.08-5-8.26-7.54-12.4Q703.12,838.2,694.51,824c1.35-2,3.37-2.8,5.07-4,5.17-3.53,5.2-3.5,1.68-8.38-2.42-3.37-2-3.86-5.86-1.18a298.87,298.87,0,0,1-64.74,33.32C579.09,863,525.76,869.67,471,866.19a379.53,379.53,0,0,1-93.78-17.76c-37-12.06-71.05-29.57-100.95-54.73a2.15,2.15,0,0,0-1.83-.79,58.34,58.34,0,0,0-6.51,7.79c2.78,2,5,4.29,5,8.12,0,1.47,1.63,2.72,2.87,3.76,2.09,1.77,4.25,3.47,6.37,5.19a25.76,25.76,0,0,1,6.93,8c3,5.75,1.64,12.11-3.59,15.9-4.24,3.07-8.92,3.67-13.69,1.3-4.32-2.16-5.48-6-5.21-10.57.05-1,.76-2.6-.47-3.07a18.06,18.06,0,0,0-5.22-.77c-.72,0-.91.77-1,1.41-1.89,10.14.28,21.15,13.51,24.52a49.5,49.5,0,0,0,12.48,1.1c5.83,0,11.55-1.12,17.31-1.78s11.62-.6,17.17,1.53,8,6.17,7.69,12a17.11,17.11,0,0,1-1.73,6.49c-1.56,3.19-3,6.41-4.55,9.61-3.34,7.08-3.34,7.08,3.75,10.51,3.54,1.7,3.58,1.72,5.2-1.85q8.88-19.59,17.73-39.2c1.39-3.08,1.46-3.09,4.52-1.85a383.17,383.17,0,0,0,47.4,15c9.83,2.53,19.75,4.65,29.74,6.44,1.42.26,2.46.46,2.21,2.31-.21,1.6-.92,2.3-2.51,2.18-.65-.06-1.3-.06-1.94-.07-17.74-.38-35.48-.79-53.22-1.08-3-.06-6.92-1.52-8.8.58-1.55,1.74-.87,5.52-1.06,8.41-.28,4.1-.24,4.18,3.77,4.62,23.45,2.59,41.9,13.91,56.21,32.31a7.39,7.39,0,0,0,4.8,2.75c5.52,1.22,5.56,1.17,6.46-4.21q3.48-20.75,7-41.46c.65-3.84.67-3.89,4.51-3.38a369.1,369.1,0,0,0,58.41,2.82c7.41-.22,14.81-.8,22.22-1.26,1.18-.07,2.31-.28,2.62,1.28.27,1.4.1,2.57-1.57,3-1.25.31-2.49.7-3.72,1.06l-56.12,16.38c-1.17.34-2.57.3-3.37,2,1.81,2.86,3.07,6.75,5.75,8.57s6.51-.14,9.85-.3c.17,0,.33,0,.49,0,17-.87,33,2.43,46.25,13.42,5.1,4.21,9.74,6.18,16,4.6a5.76,5.76,0,0,1,1.44-.1c1.87,0,2.5-.8,2.34-2.7-.71-8.35-1.22-16.72-2-25.07-1-11.21-1.09-11.2,9.88-13.2.64-.12,1.27-.29,1.9-.37a24,24,0,0,1,11,1c3.53,1.31,5.1,3.61,4.9,6.9-.18,3.06-2.14,5.15-5.81,6.28-2.88.88-6,.59-9.24,1.22,1.26,3.14,2.38,6,3.56,8.77a1.6,1.6,0,0,0,2.24,1.08c5.14-1.64,10-3.74,13.63-7.9,5.72-6.56,4.33-15.32-3.11-19.92a29.36,29.36,0,0,0-9.46-3.51c-6.38-1.38-12.82-1.25-19.27-1.06-1.08,0-2.39.33-2.6-1.34s.94-1.85,2.08-2.07c.63-.12,1.28-.18,1.92-.26a330,330,0,0,0,41.39-7.24c3.45-.84,3.5-.83,4.55,2.72,2,6.8,4,13.6,6,20.41,2.45,8.34,5,16.65,7.29,25.05.71,2.65,1.88,3,4.12,2.11,2.82-1.11,5.91-1.5,8.83-3.15l-15.13-51.3c5.25-1.65,10-3.05,14.74-4.68A396.6,396.6,0,0,0,682,830.41c.93-.52,2-2,3.21-.14,1,1.55.19,2.33-.91,3.16s-2,1.6-3,2.39Q664,849.14,646.77,862.45c-4.83,3.75-9.6,7.57-14.87,11.72,3.44,2.62,6.3,4.71,9.06,6.93,1.35,1.09,2.3,1.1,3.67-.11,5.71-5.06,12.63-7.65,19.94-9.28,15.62-3.5,31.36-3.46,47.13-1.27a8.65,8.65,0,0,0,6.7-1.66C720,867.63,720.44,866.63,719.3,864.85ZM338.93,848c-2.07,3.77-3.39,7.95-6,11.91-2.4-7.88-6.42-14.05-13.71-17.61-7-3.42-14.52-3.66-22.64-3.12,2.6-5.42,2.49-10.42.24-16,7.53,4,14.29,7.67,21.14,11.18q9.66,4.95,19.49,9.57C339.48,844.87,340.08,845.87,338.93,848Zm87.12,61.87c-7.12-7.25-13.69-14.19-21.8-19.43h25C428.76,896.84,427.24,902.92,426.05,909.82Zm94.43-2.54a119.19,119.19,0,0,0-14.73-6.46c9-3.35,17.26-5.78,26-8.43.71,8.11,1.37,15.54,2.09,23.73A127,127,0,0,0,520.48,907.28ZM672.4,858.49q8.48-7.65,17-15.29c1-.91,1.71-.38,2.29.55l9.94,16C691.49,858.76,682.13,859,672.4,858.49Z" transform="translate(-6.13 -5.95)"/><path class="cls-1" d="M550.63,82.22c-2.7-.31-3.69-1.26-4.36-3.94C542.84,64.6,534,56.34,520.18,53.53c-11-2.24-21.89-1.37-32.6,1.31-11.39,2.85-9,.45-7,11.28.44,2.37,1.32,2.92,3.55,2.08a102,102,0,0,1,14.82-4.39c7.57-1.65,15.17-3,23-1.44,9.52,1.89,15.31,8.32,16.16,18.31-1.55.76-3.17.24-4.74.15-8.7-.51-17.39-1-26.1-1.18a432.87,432.87,0,0,0-94.76,8.26,428.4,428.4,0,0,0-142.9,57,444.57,444.57,0,0,0-72.21,55.87c-1.93,1.86-5.13,3.37-5.19,6,0,2.37,3.08,3.87,4.74,5.8,1.52,1.76,3.15,3.41,5.36,5.8-6-.11-11-.12-15.9.82-13.25,2.5-22.59,9.7-27.42,22.46-3,8-3.82,16.28-3.45,24.73.14,3.21,3.06,4.89,6.15,3.69a7.79,7.79,0,0,0,4.06-4c.73-1.43,1.22-3,1.92-4.43a6.32,6.32,0,0,1,6.67-3.75c2.93.24,4.63,1.92,5.53,4.63a10,10,0,0,1,.48,4.3c-.2,2,.78,2.57,2.56,2.45.8-.05,1.61,0,2.42,0,6.31,0,5,.41,6.93-5.09,4.45-12.44,8.84-24.89,13.26-37.34.4-1.14.49-2.46,1.93-3.31l18.47,18.85c-1.33,1.2-2.34,1-3.25,1.12-11.69,2.07-19.15,8.62-21.79,20.38-.88,3.93-1.87,7.84-2.94,11.72a20.3,20.3,0,0,1-4.5,8.46c-4,4.33-8.8,5.18-14,2.5a25.33,25.33,0,0,1-6.3-5.27c-2.06,5.24-1.82,6.26,2,9.19,11.17,8.48,24.56,5.33,30.73-7.25a30.85,30.85,0,0,0,1.57-3.53c1.38-4,2.7-7.93,4-11.9,1.39-4.13,2.77-8.26,5.1-12,3.35-5.35,8.1-8.17,14.55-7.78,1.12.07,2.25.14,3.37.26,3,.34,4.21-2.21,5.57-4s-1-2.76-1.94-3.79c-9.77-10.53-19.62-21-29.44-31.45-.95-1-1.83-2.07-2.7-3.06,8-8.26,35.29-30.78,38.45-31.73a68.25,68.25,0,0,0,0,7.3c.7,6.6,4.51,10.77,10.71,12.06,3.76.79,7.39.06,11-1,7.2-2.12,12.3-6.77,16-13.19,1.55-2.7,3.36-2.57,4.84.16a9.5,9.5,0,0,1,.38,7.52c-2.31,7.7-7.68,12.56-14.84,15.55-6.68,2.79-13.73,3.33-20.9,2.59A77.83,77.83,0,0,1,231,200.51c-2.3-.91-3.64-.61-4.62,1.6-.32.72-.73,1.4-1.17,2.24a15.21,15.21,0,0,0,2.12,1.27c14.21,5.6,28.87,8.08,44.07,5.64,8.47-1.36,16.09-4.7,21.58-11.73A20.48,20.48,0,0,0,293,174a16.73,16.73,0,0,0-14.42-6.46c-2.38.08-3.85.77-4.25,3.48a23.36,23.36,0,0,1-3.48,9,15.17,15.17,0,0,1-7.52,6.54c-3,1.13-5.75.95-8.18-1.09s-3.08-4.76-2.45-7.87a17.81,17.81,0,0,1,2.56-6.22c3.86-5.93,9.22-10.29,15-14.17a3.53,3.53,0,0,1,3.18-.53c9.15,2.63,18.46,2.58,27.82,1.46,1.13-.24,2.48-.89,2.33,1.25-.68,3.65-1.33,7.29-.83,11A59.26,59.26,0,0,0,307.9,188c2.91,6.2,3,6.24,9.21,3.34.21-.1.28-.49.37-.64-7.77-14.36-5.93-28.2,2.14-42.21a19.67,19.67,0,0,1-1.87-1.35c-3.22-2.86-3.23-2.91-6.69-.4a35.25,35.25,0,0,1-15.5,6.4,28,28,0,0,1-13.87-.86c-1.61-.56-2-1.61-.55-2.82a17.74,17.74,0,0,1,2.41-1.61,379.54,379.54,0,0,1,39-20.33c4.56-2,4-2.31,6,2.63q7.41,18.63,14.74,37.3c2.79,7,2.78,7,9.75,3.51,3.83-1.94,3.52-1.67,2.09-5.36q-7.62-19.59-15.2-39.21c-.41-1-.81-2.1-1.26-3.13a1.61,1.61,0,0,1,.89-2.37c1-.48,2.05-.92,3.09-1.38,22-9.8,45.08-16.36,68.65-21.23a489,489,0,0,1,62.25-8.45c8.52-.64,17.08-.81,25.63-1,4.23-.09,6.14,1.86,6.56,6.08a15.31,15.31,0,0,1-.49,5.74c-.46,1.62-1.16,2.48-3,2.3a16.16,16.16,0,0,0-9.37,1.82c-1.74.94-2.89.6-4.06-1a25.83,25.83,0,0,0-6.7-6.23c-5.93-3.9-12-4.22-18.28-.8-4.44,2.43-7.9,6-11.12,10.06a56.24,56.24,0,0,0,8.77,7c9.08-12.25,19.29-14.56,25.87-5.89-2.48,2.59-5.67,4.56-8,7.77,2.25,1.65,4.16,3.11,6.11,4.5,2.62,1.85,2.64,1.84,4.82-.86,2.75-3.4,5.6-6.72,9.8-8.4,6-2.4,10.33.42,10.57,6.86.18,4.88-.95,9.57-2.17,14.33a7.58,7.58,0,0,1-1.47-.59c-5.79-4-12.1-4.82-18.93-3.47-5.25,1-10.2,2.94-15.25,4.58a23.26,23.26,0,0,1-6.07,1.55c-3.29.15-4.43-.82-4.66-4.07a32.17,32.17,0,0,1,.82-7.85c-2.6.6-5.19.38-6,3-3.13,9.77,3.82,18.33,14,17.25a85.22,85.22,0,0,0,11.38-2.18c5.47-1.36,10.86-3.06,16.52-3.59,4.47-.42,8.54-.18,12,3.51,2.39,2.6,5.86,1.24,6.63-2.28.59-2.68,1.14-5.37,1.5-8.08,1.26-9.42,1-18.42-8.05-24.68,4.43-4.43,4.52-9.7,3.86-15.59,7.28.4,14.33.81,21.33,1.79,2,.28,1.43,1.71,1.29,3-1.55,13.62-3,27.24-4.62,40.86-.89,7.7-.94,7.59,6.83,8.05,2.23.12,2.77-.7,3-2.63,1.6-13.94,3.31-27.86,4.91-41.79.62-5.5.54-5.68,5.78-5.2,2.52.22,3.41-.53,3.74-3C557.94,83.22,558,83.07,550.63,82.22ZM185.06,253.08c-.86,2.76-1.56,2.87-3.9.89-3.19-2.69-6.62-2.76-10.38-1.44-3.22,1.13-4.31.26-3.59-3,1.23-5.53,3.11-10.83,6.71-15.32,4.78-6,11-8.48,19.32-8C190.39,235.62,187.81,244.37,185.06,253.08Z" transform="translate(-6.13 -5.95)"/><path class="cls-1" d="M892.46,455.78,882,463c-8-8.64-7.25-19,1.86-30.16-.56-1.52-2.14-1.76-3.3-2.45-11.09-6.64-12.47-17.42-12.07-27.17.06-1.41.77-1.95,2.15-1.93,3.7,0,7.39,0,11.34,0-.3,3.75-1.78,6.72-1.69,10,.07,2.58-.13,5.15.63,7.68,1.25,4.18,3.55,7.19,8.22,7.72,5.14.59,9.08-1.22,11.42-5.51s2.95-9.19,2.81-14.06a41.13,41.13,0,0,0-1.72-11.45c-6.6-20.73-13.51-41.35-22.3-61.29-1.3-2.94-2.9-5.75-4.3-8.65-.73-1.5-1.65-1.64-3.1-.93-7.36,3.64-14.76,7.2-22.14,10.79.27,1.79,1.76,2.36,2.76,3.28a189,189,0,0,1,21.08,22.65c1.62,2.06,2.26,3.94,1.36,6.61-1.49,4.4-2.5,9-3.86,14-11.26-8.51-22.77-8.24-34.35-1.58-.36-.26-.7-.37-.83-.6-2.59-4.76-2.2-4.09,1.79-6.58a50.41,50.41,0,0,1,20.93-7c1-.12,1.92-.21,2.87-.35.11,0,.19-.22.37-.45.21-1.43-1.06-2.16-1.85-3.05a90,90,0,0,0-21.46-17.91c-2.38-1.42-3.47-3.06-3.44-5.76a48.46,48.46,0,0,0-.34-7.72c-.43-2.83.86-4,3.24-5,9.59-4.21,19.1-8.59,28.63-12.92.72-.33,1.41-.74,2.09-1.1-6.7-20.19-28.88-29.85-47.13-20.55a23.78,23.78,0,0,0-5.19,3.53c-7,6.34-7,14.27.19,20.39,2.07,1.76,4.45,3.16,6.74,4.76,0,.2.16.57,0,.76-5,7.53-3.48,7.73-10,1.05a28.46,28.46,0,0,1-7.66-13.77c-1.67-7.34.18-13.77,5.1-19.3,5.42-6.09,12.48-9,20.47-9.69a40,40,0,0,1,18,2.56c1.13.44,2.2,1.35,4.14.91-5.62-8.87-12.08-16.77-19-25L792,291.21c-2.16-1.16-3-3.18-4.2-4.85-2.68-3.78-3.35-3,.7-6.3l32.32-26.23c2.37-1.92,4.71-3.87,7.23-5.94l-11.57-14.25-9.75,7.64q-15,11.83-30,23.69c-2.75,2.16-2.84,2.16-4.77-.48-1.5-2.05-4.29-4-4-6.28s3.56-3.44,5.56-5c5.7-4.49,11.51-8.84,17.25-13.29,3-2.32,3-2.63,1.28-5.95-3.86-7.37-12.42-10.76-21.68-8.54-1.7.41-3.37,1-5.44,1.57.22-5.36.55-10.44-.57-15.5C761.59,199.05,751,190.71,739.27,192c-3.62.41-6.56,1.81-7.76,5.53-1.38,4.27.3,8,4.52,10a22.66,22.66,0,0,0,10.37,2c2.05-.06,3,.66,2.89,2.74a18.09,18.09,0,0,0,.08,1.94c.3,7.42,0,7.69-7.41,5.48a27.76,27.76,0,0,1-13-8c-5.6-6.27-5.87-14.08-.76-20.76,7.24-9.48,21.39-10.41,30.44-2,4.12,3.84,6.59,8.71,8.45,13.92a41.12,41.12,0,0,1,1.75,6c.36,1.8,1,2.66,3,2.92,13.15,1.68,21.4,8.92,24.37,22a7,7,0,0,0,.64,1.23l12.38-9.43a624.76,624.76,0,0,0-63.77-56.72c2-2.09,3.58-3.85,5.24-5.56,2.35-2.43,2.39-2.45,5-.46q12.52,9.53,24.34,19.91c45.19,39.62,81.69,85.91,107.57,140.33a326.13,326.13,0,0,1,24.33,69.15c2,8.75,2,17.25-1.55,25.6a33,33,0,0,1-8.31,11.68c.71,1.61,2.19,2.06,3.25,3,4.5,3.82,8.15,8.24,10.16,13.88,2.67,7.47,1.33,14.27-3.44,20.48-.94,1.23-2,2.4-3.32,4,5.06,0,9.51.13,13.95,0,2.51-.1,3.36.71,3.39,3.24.07,5.16.52,10.31.7,15.47.12,3.36,0,3.36-3.44,3.55a3.85,3.85,0,0,1-.48,0c-2.54-.17-5.58,1.18-7.5-.45s-.91-4.59-.89-6.95c0-2.74-1.23-3.15-3.56-3-11.12.52-22.24.92-33.36,1.37-3.87.15-7.75.22-11.61.48-2.16.14-2.68-.8-2.81-2.81-.57-8.61-.63-8.56,7.88-8.84,6.77-.23,13.55-.51,20.31-.93,11.24-.69,17-7.2,16.36-18.42a23.66,23.66,0,0,0-3.14-10.56,12.31,12.31,0,0,0-5.45-5.33c-3.2-1.47-6.57-2.27-9.58.23s-3.46,5.7-2.82,9.25A13.25,13.25,0,0,0,892.46,455.78Z" transform="translate(-6.13 -5.95)"/><path class="cls-1" d="M690.86,124l-.87-.44c-30.59-14.75-62.63-25.38-95.5-33.64-3.2-.8-3.23-.77-4.34,2.58-.66,2-1.23,4-2,6.52,1.76.48,3.13.88,4.52,1.21a526.78,526.78,0,0,1,51.86,15.32c1.29.45,3.08.51,2.44,2.7-.51,1.73-1.46,2.78-3.5,2.42-1.26-.23-2.57-.17-3.85-.31q-25.25-2.69-50.48-5.38c-1.4-.15-2.85-.61-4.54.27.43,2.91,1,5.88,1.26,8.88.19,1.93,1.12,2.71,2.94,3.18a77.35,77.35,0,0,1,9.65,3.08c10.41,4.19,19.23,10.45,25.19,20.22a40,40,0,0,1,5.22,12.93c.41,2,1.13,4,3.39,4.06,1.75.07,1.81-2,2.4-3.25,6.44-13.34,12.81-26.72,19.22-40.08.69-1.43,1.06-3.07,2.66-4.3l16.05,7.48c-1,2-1.77,3.63-2.58,5.2l-19.09,36.92c-3.26,6.32-3.26,6.32,3.18,9.48,2.93,1.43,3,1.46,4.56-1.64,4-7.75,7.86-15.52,11.79-23.28q5-9.92,10.07-19.81c.68-1.34,1.16-2.6,3.21-1.57,1.8.9,3.77,2.91,5.64,2s2.24-3.76,3.21-5.77C694.16,125.63,694.09,125.59,690.86,124Zm-58.13,22.16c-4.68-7.06-9.25-13-15.9-18.71L641,128.54Z" transform="translate(-6.13 -5.95)"/><path class="cls-1" d="M140.68,417.53c-13.4-3.16-26.28-6-39.06-9.32-3.87-1-6.13-.15-8.38,3.07-4.18,6-8.07,12-9.92,19.2A30.48,30.48,0,0,0,82.66,441a12.8,12.8,0,0,0,1.6,5c.93,1.67,1.8,3.78,4.1,3.57,2.1-.19,2.42-2.39,3-4,1.36-3.62,2.52-7.3,3.82-10.94a23.83,23.83,0,0,1,4.14-7.6c3.2-3.74,7.42-4.46,11.75-2.11a16.15,16.15,0,0,1,5.29,4.88c4.54,6.26,6.83,13.44,8.5,20.88a2.42,2.42,0,0,1-1.06,2.89c-2.35,1.62-4.68,3.27-7.47,5.23-.63-3.07-1-5.54-1.65-8-1.26-5.06-3.2-9.82-6.8-13.7-1.54-1.65-3.22-3.48-5.77-2.84-2.71.68-3.5,3.05-4,5.51-1,4.63-.74,9.31-.53,14a70.14,70.14,0,0,1-.11,12.55c-.06.48-.08,1-.14,1.45-.45,3.12-1.18,6.27-4.37,7.57-3.43,1.4-5.88-1.11-8-3.18C77.86,465.53,74.22,457,73,447.5c-1.26-10,1.28-19.18,6.17-27.83a82,82,0,0,1,9.27-13,2,2,0,0,0,.68-2L79.89,402c1.93-7,3.85-13.74,5.65-20.53.44-1.68,1.31-2,2.8-1.56.15,0,.32.06.47.11,2.45.78,5.52.92,7.18,2.53,2,1.93-.31,4.73-.88,7.08-.62,2.53.89,2.57,2.51,3q16,3.82,31.92,7.71c4.07,1,8.12,2,12.21,2.93,1.88.4,2.36,1.38,1.89,3.1C142.69,409.89,141.76,413.45,140.68,417.53Z" transform="translate(-6.13 -5.95)"/><path class="cls-1" d="M178.52,324.92l-5.88,10.32c-1.84,0-2.93-1-4.16-1.72-8.31-4.62-16.64-9.19-24.85-14a9.74,9.74,0,0,0-10.88.1c-19.56,11.75-24.75,32.07-18.78,51,1.06,3.38,2.67,7,6.93,7.14,4.09.14,6.26-3,7.87-6.25,3.51-7.11,3.75-14.55,1.82-22.14-.4-1.54-.89-3.06-1.51-5.2,3.59,0,6.87,0,10.16,0a1.66,1.66,0,0,1,1.87,1.69c1.24,10.87.46,21.4-6.56,30.35-5.93,7.58-16.8,8.1-24.57,1.49-6.24-5.3-9.16-12.38-9.82-20.36-1.25-15,4.58-27.34,15.09-37.72a69.88,69.88,0,0,1,12.34-9.34l-10.29-6.07c3.75-6.36,7.4-12.54,11.06-18.72.6-1,1.37-1.11,2.4-.51,2.37,1.37,4.78,2.67,7.17,4,1.07.59,1.14,1.4.53,2.4-1.1,1.78-2,3.7-3.27,5.36-1.64,2.16-1,3.2,1.2,4.4,12.26,6.79,24.45,13.71,36.67,20.59C174.73,322.7,176.37,323.68,178.52,324.92Z" transform="translate(-6.13 -5.95)"/><path class="cls-2" d="M145.45,770.91q4.11-9.24,8.23-18.5c2.11-4.71,2.12-4.71-1.83-8.31L136,729.63c5.39-.54,9.85.85,14.37,1a55.92,55.92,0,0,1,9.58,1.12c2.51.54,3.42-.5,4.3-2.53,2.43-5.61,5-11.14,7.56-16.7.66-1.45,1.35-2.88,2.54-5.42,1.24,5.74,2.25,10.43,3.26,15.13.6,2.83,1.39,5.64,1.72,8.5.3,2.57,1.39,3.45,4,3.64,6.25.46,12.48,1.27,18.71,2,1.4.16,2.77.53,5.05,1L188.8,747.79c-5.43,3.1-5.43,3.1-4.16,9.15s2.49,12,3.73,17.94a1.55,1.55,0,0,1-.11,2c-5.79-4.31-10.76-9.54-16.15-14.29-3.62-3.2-3.59-3.21-8-.74q-9.21,5.14-18.45,10.24a.89.89,0,0,1-.35-.74C145.33,771.06,145.38,770.91,145.45,770.91Z" transform="translate(-6.13 -5.95)"/><path class="cls-2" d="M811.64,772.92c1.16-5.83,2.29-11.67,3.49-17.5.93-4.55,1-4.55-2.94-6.79l-16.76-9.56c-.68-.39-1.49-.63-1.91-1.75,4.45-1.51,9.13-1.12,13.61-1.93a57,57,0,0,1,9.11-1c2.64,0,3.6-1.25,4-3.64,1.28-6.8,2.71-13.57,4.09-20.34.12-.61.31-1.19.52-2,1.59.18,1.68,1.53,2.07,2.38,2.83,6.13,5.64,12.28,8.32,18.48.89,2.08,1.9,2.88,4.37,2.5,6.19-1,12.45-1.51,18.69-2.17a9.42,9.42,0,0,1,4.91.21c-2.19,2-4.13,3.83-6.08,5.61-3.8,3.48-7.53,7-11.46,10.38-1.66,1.42-1.83,2.6-.93,4.51,3.28,7,6.41,14,9.59,21-1.4,1.23-2.23-.08-3-.53-5.77-3.19-11.55-6.37-17.18-9.81-2.28-1.39-3.73-1.47-5.78.53-5.06,4.94-10.44,9.57-15.69,14.32C810.3,775.64,811.44,774.11,811.64,772.92Z" transform="translate(-6.13 -5.95)"/><path class="cls-2" d="M86.41,646c3-6.61,5.78-13.27,8.91-19.8,1.2-2.5.82-3.92-1.27-5.71-5.7-4.91-11.16-10.09-17.3-15.69,2.12,0,3.47-.13,4.8,0,6.55.73,13.11,1.46,19.65,2.36,2,.28,2.92-.47,3.66-2.15,2.6-5.88,5.27-11.74,7.93-17.6.59-1.29,1.27-2.53,2.43-4.86,1.24,5.78,2.26,10.49,3.27,15.21.64,3,1.4,6,1.82,9,.29,2,1.25,2.56,3.14,2.75,7.83.81,15.66,1.78,23.6,2.71-.4,1.64-1.77,1.88-2.77,2.46-5.84,3.39-11.69,6.79-17.61,10-1.9,1-2.33,2.1-1.83,4.23,1.44,6.1,2.56,12.28,3.85,18.42a14.11,14.11,0,0,1,.53,4.29c-1.64.17-2.29-1.15-3.19-1.94-4.45-4-8.79-8.05-13.25-12-4-3.57-2.42-3.53-7.62-.72-6.22,3.36-12.13,7.27-18.55,10.28a1,1,0,0,1-.35-.82Q86.31,646,86.41,646Z" transform="translate(-6.13 -5.95)"/><path class="cls-2" d="M870.65,649c1.19-6,2.34-12,3.57-18,1-4.82,1-4.82-3.09-7.17L851.7,612.67c6.12-1.42,11.68-1.61,17.16-2.27,3.19-.39,7,.2,9.34-1.63s1.65-5.68,2.31-8.65c1.2-5.46,2.33-10.94,3.63-17,1.8,1.93,2.27,3.77,3,5.41,2.31,5,4.53,10,6.8,15,1.81,4,1.81,3.92,6,3.43,6.56-.78,13.13-1.49,19.7-2.19.7-.07,1.54-.44,2.46.71-4.23,3.87-8.49,7.71-12.68,11.62-2.11,2-5.34,3.47-6,6.12s1.87,5.27,3,7.89a144.64,144.64,0,0,1,6.41,16.32c-2-1.09-4.09-2.15-6.11-3.28-4.49-2.53-9.06-4.93-13.4-7.71-2.52-1.62-4.1-1.18-6.16.79-5,4.79-10.24,9.33-15.38,14C870,651.19,870.25,650.11,870.65,649Z" transform="translate(-6.13 -5.95)"/><path class="cls-1" d="M352.05,124.87c2.81-1.94,4.82-1.38,7.13.62,7.74,6.71,16.33,12.06,26.34,14.79s19.82,2.15,28.93-3.31c6.17-3.68,10.75-8.78,12.58-15.89,1-3.76.64-7.49-2.52-10.25a10.24,10.24,0,0,0-11.3-1.72,20.19,20.19,0,0,0-6,4,40.85,40.85,0,0,0-7,8.63c-.66,1.07-1,2.42-2.49,3.19-2.94-2.57-5.95-5.23-9-7.84-1.09-.93-1.22-1.77-.12-2.78,9.47-8.68,20.12-14,33.38-11.29,11,2.29,16.8,11.33,14.69,22.36C434,139.07,423.61,149,409,151.46c-18.4,3.07-33.95-3-47.45-15.25A54.46,54.46,0,0,1,352.05,124.87Z" transform="translate(-6.13 -5.95)"/><path class="cls-3" d="M720.64,135.65a40.61,40.61,0,0,0-7.35-.68,23.18,23.18,0,0,0-11.09,2.47c-6.4,3.15-9.6,8.36-9.53,15.52a17.93,17.93,0,0,0,12,17.08c7.29,2.79,14.57,2.25,21.67-.71A14,14,0,0,0,735,159C737.92,145,730.11,137.52,720.64,135.65ZM726.46,160a29.46,29.46,0,0,1-23.43.38,7.74,7.74,0,0,1-5.21-7.93c.2-3.6,2.61-5.73,5.88-6.92a23.69,23.69,0,0,1,2.75-.86,30.14,30.14,0,0,1,8.62-.93,25.18,25.18,0,0,1,10.85,1.71c3.16,1.35,5.43,3.41,5.65,7.12S729.55,158.68,726.46,160Z" transform="translate(-6.13 -5.95)"/><path class="cls-4" d="M710.77,214.84c-5-17.19-17.55-27.61-30.88-37-.32-1.2.37-1.75.83-2.35,1.73-2.29,2.75-6.23,5.22-6.53,2.8-.34,4.79,3.24,6.87,5.37a95,95,0,0,1,20,30.42C714.35,208.38,714.47,211.51,710.77,214.84Z" transform="translate(-6.13 -5.95)"/><path class="cls-5" d="M399,923.87c-5-4.14-9.89-7.74-15.8-9.62-1.49-.47-1.83-1.23-1.68-2.83.63-6.5.88-6.73,6.78-4.34a38.53,38.53,0,0,1,11.31,7.12c2.08,1.88,2.78,3.71,1.13,6.18A34.1,34.1,0,0,0,399,923.87Z" transform="translate(-6.13 -5.95)"/><path class="cls-6" d="M690.89,886.78c-7.17-1-14.29-1.27-21,2-3.15-6.95-2.87-7.69,3.95-9a40.61,40.61,0,0,1,13.87-.4c3.6.55,3.66.54,3.77,4.17C691.48,884.65,691.82,885.83,690.89,886.78Z" transform="translate(-6.13 -5.95)"/><path class="cls-7" d="M811.64,772.92c.4,1-.3,2.35,1.05,3-.32.72-.75,1.51-1.64,1.17-.59-.23-.42-1-.35-1.63A4.11,4.11,0,0,1,811.64,772.92Z" transform="translate(-6.13 -5.95)"/><path class="cls-8" d="M870.65,649c.29.78.19,1.77,1.19,2.16-.31.8-.88,1.52-1.72,1.23-.54-.19-.43-1.12-.26-1.71A12.21,12.21,0,0,1,870.65,649Z" transform="translate(-6.13 -5.95)"/><path class="cls-9" d="M301.31,158.07c.89-.8,1.94-1.26,2.9-.34.41.4,0,1.18-.57,1.6C303.16,158.36,302.16,158.36,301.31,158.07Z" transform="translate(-6.13 -5.95)"/><path class="cls-10" d="M188.26,776.87l.11-2a1.92,1.92,0,0,1,.72,2C188.89,777.57,188.5,777.43,188.26,776.87Z" transform="translate(-6.13 -5.95)"/><path class="cls-11" d="M86.41,646l.2,1.27c-.2.48-.58.71-.84.15A1,1,0,0,1,86.41,646Z" transform="translate(-6.13 -5.95)"/><path class="cls-12" d="M145.45,770.91l.21,1.17c-.19.44-.53.73-.81.18A1,1,0,0,1,145.45,770.91Z" transform="translate(-6.13 -5.95)"/><path class="cls-13" d="M578.45,583.29c-.53,3.31-3.38,5.76-3.37,9.27,0,1-.65,1.38-1.54,1.42s-1.78,0-2.22.71c-2,3.38-3.86,1.46-5.45-.24-1.37.33-1.08,1.27-1.2,2-.3,1.69-1.19,2.07-2.77,1.44-1.42-.56-3.29-2.18-4.36-.57-1.52,2.29,1.52,2.57,2.52,3.76.54.64,1.15,1.36.82,2.15-1,2.43-3.16,4-5,5.73-1.14,1-2.74.4-4.14-.12a12.2,12.2,0,0,1-3.82-2c-2.08-1.79-3.89-2.91-6.69-.71-1.87,1.47-4.91.42-6.61-2.36a28.42,28.42,0,0,0-9.13-9.06c-2.11-1.39-3.1-3.59-3.64-6.06-.42-1.87-.64-3.84-1.75-5.5-1.41-2.11-3.55-2.73-5.34-1.23a49.47,49.47,0,0,0-5.48,5.45c-1.31,1.52-.72,2.65,1.29,2.89a2.57,2.57,0,0,0,.48,0c1.9-.07,4-.68,5.36,1.23a9.94,9.94,0,0,1,1.76,6.88c-.08,1-.37,1.9-.47,2.86-.34,3.22-.16,3.43,3.15,2.64,1.4-.34,2.21,0,2.62,1.25a10.21,10.21,0,0,1,.55,2.83,7,7,0,0,0,3.56,6.42c2.69,1.52,3,3.72,2.18,6.62-1,3.5-2.42,7.07-1.07,10.85.11.3.27.78.13.92-2.34,2.44-1.81,5.86-2.95,8.5a15.58,15.58,0,0,1-6.24,7.13c-2.57,1.52-3.88,4.76-7.09,5.47-4.14-2.82-3.69-6.23-1.88-10.26,1.29-2.87,2.81-5.74,3-9.05.09-1.53,1.52-2.38,2.48-3.46,1.54-1.76,1-2.89-1.21-3.37-1.69-1.67-1.47-3.7-.89-5.68.8-2.7.47-5.39.07-8-.55-3.67-1.85-6.83-6.32-7.12a1.64,1.64,0,0,1-1.55-1.53c.16-1.47,1.31-2.35,2.22-3.57a19.72,19.72,0,0,0-2.23,2.58c-.26.68-1.36,1.59-.5,2.06,3.41,1.87,3.38,5.07,3.73,8.27.25,2.27,1.6,4.14,2.82,6.05,1,1.59,2.14,3.33,0,5-.6.52-1.5.93-1.76,1.59-2.42,6.24-8.52,10-10.89,16.27a5.05,5.05,0,0,1-1.56,1.78,2.87,2.87,0,0,1-3.57.41c-1.42-.92-.93-2.2-.31-3.4.45-1.18,0-1.51-1.09-1.09-1.87,0-2.73.51-2.76,2.73,0,3.23-1.88,4.29-4.62,2.69-1.66-1-3.49-1.48-5.12-2.44-.31-.26-.7-.64-1-.41-.61.41-.17,1,0,1.49.52,2.5-1.3,3.87-2.76,5.24-2.91,2.77-5.85,5.45-7.33,9.34a4.21,4.21,0,0,1-1.91,2.09c-1.76,1-3.2.44-3.53-1.56a6.18,6.18,0,0,1,2-5.62,38.58,38.58,0,0,1,2-4.07c-1.08,1-1.17,2.75-2.92,2.3-.72-.65-1.47-1.25-2.13-1.94-.88-1-1.24-2.13.13-2.8,2.39-1.16,2.5-3.39,3.42-6.32-2.79,2.07-4.76,3.56-6.38,5.84-2.16,3,2.27,4.86.87,7.54-2.85.22-3.84-1.61-4.37-3.9a26.08,26.08,0,0,1-.34-6.24c0-1.54.36-3.12-.16-4.71-4.32,2-4.32,2-6.16,5.22-2-.39.09-2.4-1.51-3.23-1.54,1.4-2.51,2.64-.78,4.91a18.84,18.84,0,0,1,3.56,14.11c-1.2.05-2.7-.93-3.05,1.41a2.69,2.69,0,0,1-2.83,2.2c-1.63-.15-2.06-1.37-2.52-2.95-.62-2.11-1.68-4-1.18-6.38.15-.66-.88-.71-1.5-.77-1.61,1.29-1.53-2.36-3.14-1.07-.14,1-.74,2.48-1.49,2.07-2.4-1.34-5-.86-7.45-1.42-.76-.18-.61-1-.73-1.63,1-1.36.83-3.09,1-4.55.27-1.87-1,.58-1.56-.1-1.08-.56-1-1.38-.54-2.3-.6-2.83-1.16-5.67-1.82-8.49-.22-1-.79-1.84-2-1.74-1,.09-1,1.09-1.3,1.78-1.07,2.12-1.87,4.15.34,6.09.34.29.75,1,.62,1.24-1.75,3.39.72,6.16,1.22,9.21a6.22,6.22,0,0,1-.09,1.92,1.73,1.73,0,0,1-1.08,1.49c-.7.23-1.19-.17-1.5-.81-.4-.82-.63-2.14-1.89-1.63-1.46.59-1,2-.42,2.89,1.49,2.53,1,5.3,1.35,8s-1.1,4.2-3,5.48c-2.25,1.53-3,1.26-4.29-1.3a19.54,19.54,0,0,0-1.38-2.55c-1.46-2-1.62-3.56.81-5.1a4.16,4.16,0,0,0,1.44-5.58c-1-2.2-2.22-4.29-2.57-6.74a1,1,0,0,0-1.41-.82,1.9,1.9,0,0,0-.86,1,3.23,3.23,0,0,0,.63,3.2c2.23,2.36,1.31,4.24-.5,6.19-.52.56-.63,1.5-1.66,1.63-1.35-.64-.69-1.92-.8-2.94s.27-2.36-.53-2.74c-4.95-2.43-2.21-6.66-2.42-10.11-.18-3,.07-3-3.14-4.2-.83,1,.18,1.72.52,2.46.45,1,.7,1.87-.22,2.6-1.21,1-2-.11-3-.67-1.11-.66-.69-2.56-2.78-2.89-.29,2.82,0,5.71-1,8.41-.55,1.44.9,2.2,1.8,3.12,2.31,2.37,2.55,3.6.79,6.37-1,1.65-1.54,3.94-4.36,4.84.59-4.17-1.54-7.62-1.31-11.47.13-2-1-3.74-2.09-5.31-1.27-1.75-1.27-3.15.62-4.48,2.1-1.49,2.61-3.15.27-5a1.58,1.58,0,0,1-.14-2.54c2.14-1.84,1.31-3.64.74-5.94-.51-2.08-.72-3.82-2.52-5.35-2.75-2.33-2.82-3.37-1.24-6.5.58-1.16.78-2.17-.09-3.1-1.75-1.85-1.44-3.73-.36-5.75a5.92,5.92,0,0,0-1-7.16c-1.27-1.43-2.49-2.61-.54-4.38a1.47,1.47,0,0,0,.27-1.34,10.56,10.56,0,0,1-.58-8.35c.19-.57-.33-1.16-.75-1.69-2-2.45-1.94-2.47.61-4.57,3-2.46,3.14-3.48.32-6.14-3.15-3-4-7.13-5.72-10.82-1.2-2.61,1.25-5.12,1.55-7.84s1.93-4.5,5-5.06c2.24-.41,2.5-1.87.7-3.32-1.61-1.29-2.55-4.57-5.75-2.47-.51.33-1.1-.43-1.61-.82-2.45-1.83-2.46-1.81-3.63,1.68a47.25,47.25,0,0,0-7.43-5.12,3,3,0,0,1-1.37-4.48c1.82-.78,2.68,1.89,4.58,1.06.65-.82-.18-1.36-.67-1.83-1.42-1.37-1.77-2.31.2-3.76s3.25-3.41,4.74-5.25a4.34,4.34,0,0,0,1.17-3.09,1.7,1.7,0,0,0-1-1.53,1,1,0,0,0-1.23.44c-.78,1.1-1.67,2-3.14,1.85s-3.65.41-2.7-2.46a1.33,1.33,0,0,0-.67-1.65,6.07,6.07,0,0,1-3.26-3.95c-.11-.41-.63-1-.95-1-3,.1-3.16-2.62-3.95-4.49-1.8.73-1.06,2.13-1.49,3.07-.28.6-.62,1.16-1.4,1a1.4,1.4,0,0,1-1.07-1.44,10.28,10.28,0,0,1,2.91-6.94c3.24-3.13,3.23-3.13.13-6.32,4.85-2.58,4.67-.56,1.26-7.23,2.11.17,4.11.46,6.11.46,3.88,0,8.21-4.4,7.61-8.12a14.29,14.29,0,0,1,0-4.13c.33-3.26-2-5.11-4.49-6.87,5.75-2.33,6.51-3.77,5.42-9.88-.81-4.55-2.41-5.89-7.22-5.87-3.09,0-6.11,0-8.74-2.06-1.32-1-3.06-.89-4.67-.89a19.52,19.52,0,0,1-12.82-4.85c-3.71-3.08-7.94-5.49-11.18-9.21a32.88,32.88,0,0,1-4.19-5.86c-1.21-2.26-2-4.66-4.33-6.17-1.29-.81-1.33-2.27.21-3.1,2.59-1.39,3.91-3.78,5.24-6.18,1.45-2.6,3.13-4.71,6.25-5.62,2.37-.68,2.44-2,.7-3.94-.88-1-2.86-1.43-1.94-3.29.73-1.46,4-1.74,5.74-.56.92.64,1.64,1.56,2.5,2.29a27.43,27.43,0,0,0,3.42,2.68c1,.63,2.35,1.85,3.48.72,1.43-1.43-.31-2.13-1.17-3-.37-.35-1.23-1-.1-1.24,1.46-.28,1.41-1.39,2-2.3,1.15-1.8,2.47.89,4.24,0a20.85,20.85,0,0,1,2.83-7.46c1.13-2.08.65-4.35-.11-6.57-.55-1.63-1.28-3.71.74-4.78a5.89,5.89,0,0,1,6,.42,5,5,0,0,1,1.29,1.43c1.25,1.8,2.68,1.7,3.92.15,1.45-1.81,2.71-2.71,4.5-.39.75,1,1.72.6,2.47-.2a2.25,2.25,0,0,1,3.07-.34c2.21,1.35,4.26,3.09,6.9.66.67-.62,1.32.43,2,.83,3.26,1.94,5.32,1.28,6.73-2.18a15.42,15.42,0,0,1,1.72-2.85c2.16-3.12,1.21-5.6-2.4-5.5-2.63.06-4-1-5.66-2.73-2-2.12-3.45-3.64-.93-6.43,1.14-1.25-1.81-6.72-3.5-7.17-1.44-.38-1.14,2.63-2.41,1.48-2.36-2.14-4-.68-5.84.56-1.5,1-2.86.29-3.91-.76a8.13,8.13,0,0,0-6-2.62,2.8,2.8,0,0,1-2.93-2.11c-.4-1.89-1.72-2.54-3.29-3.13-1.14-.42-1.77-1-1.16-2.54a3.81,3.81,0,0,0-2.76-5.27c-4.44-.94-6.37-4-8.14-7.54-.36-.72-.75-1.43-1.17-2.12-.67-1.08-1.42-1.65-2.74-.74-2.79,1.93-5.77,2.31-8.17-.41s-4.23-5.75-1.27-9.34a1.44,1.44,0,0,0,.15-1.32c-2.35-3.21.52-4.49,2.3-6,1.52-1.32,3.79-1.8,4.58-3.87-.6-1.16-1.68-1.18-2.48-1.67-2.46-1.49-2.51-1.92,0-3.22a7.86,7.86,0,0,0,2.42-2.2c1.8-2.12,4.08-3.79,7-3.6,2.13.13,2.7-.6,3-2.58.53-3.19,3.24-5.08,5.21-7.39a3.09,3.09,0,0,1,2.68-.8c1.13.06,2.25.24,3.38.26,1.37,0,3.07.71,3.9-.92s-.4-2.67-1.61-3.58c-.63-.47-1.49-1.24-.62-1.91,2.9-2.24.3-2.71-1.05-3.51-1.93-1.14-4-.76-6.15-.69-4.51.15-5.63-1.35-4.09-5.52a26.79,26.79,0,0,1,4.64-7.88,1.92,1.92,0,0,1,2.12-.79,2,2,0,0,1,1.3,1.88,21.53,21.53,0,0,1,0,2.41,4.47,4.47,0,0,0,2.48,4.36,4.21,4.21,0,0,1,1.24.74c2.73,3.42,5.62,6.46,10.59,6.11a2,2,0,0,1,1.85,1.95c-.17,2.33,1.52,3.41,2.8,4.81.76.83,1.9,1.59,2.14,2.57,1.09,4.31,5.63,5.55,7.71,8.95a1.34,1.34,0,0,0,2.11.17c.86-.7,1.62-1.52,2.38-2.24,1.71.39,1.39,2.69,3.15,2.87,1,.1,2.07.32,2.69-.53s-.09-1.49-.64-2.11a1.59,1.59,0,0,1-.42-2c1.91,0,3.25,1.55,4.92,2.24.95.4,2,.52,2.62-.41s-.13-1.86-.87-2.4c-2.09-1.52-4.27-2.89-6.38-4.38-1.58-1.11-2.46-2.54-1.6-4.55s2.2-2.45,3.75-.7a6.09,6.09,0,0,0,5.57,2.19c1.55-.16,2.59.37,2.22,2.16-.5,2.44,1.83,4.79.08,7.33-.42.6.57,1.47,1.3,1.79,2.46,1.08,2.53,2.89,2.07,5.21-.65,3.32.29,5,3.37,5.72a8.71,8.71,0,0,1,5.5,3.54c2.72,3.77,6.19,6.05,11.11,5.34a3.14,3.14,0,0,1,3.54,1.93c.74,1.59,1.78,1.6,3.05.54s2.29-.5,3.54.15c2.05,1.08,3.4.39,2.83-1.49-1-3.32,0-4.16,3.16-3.65A2.09,2.09,0,0,0,448,322c.43-1.1-.27-1.82-1.09-2.41-.4-.27-.86-.45-1.26-.72-3.58-2.4-3.61-2.56.26-4.85a4.14,4.14,0,0,0,1.81-2.61c.59-1.7,2.37-2.23,3.44-1.09,2.27,2.43,5.15,4.41,6.4,7.71.89,2.36,1.3,4.64-.1,7a2,2,0,0,0-.17,2.42c.5.54,1.33.22,2.11.32,3.61.44,4,1.71,2.92,5-1.39,4.37-4.54,8.65-1.74,13.64.7,1.25-.08,2.52-.66,3.67-1,1.95-1,3.63.88,5.16,1.65,1.37,1.57,3.45,1.76,5.36.57,5.53.71,11-3.36,15.5a3.45,3.45,0,0,0-.65,3.64c.68,1.8.1,3.47-.26,5.46,7.71-2.49,13.43,1.32,19,5.6a9.6,9.6,0,0,0,4.32,1.91c5.36,1,10.87,1.64,15.44,5.09a4.17,4.17,0,0,0,2.73.79c6.11-.21,12.22-.43,18.32-.73,1-.05,2-.58,2.81.05,2.4,1.88,4.43,2.17,6.58-.5.83-1,2-.11,2.93.7,4.38,4,9.18,3.55,13.78.74,3.57-2.18,7.05-3.05,11-1.51a5.45,5.45,0,0,0,5.06-.34,4.42,4.42,0,0,1,6.07,1.13,7.74,7.74,0,0,0,7.26,2.92c3.13-.29,5.89,1.43,9,1.65,2.37.18,4.44.18,6.34-1.43,1.59-1.35,2.93-1.64,3.11,1.12.1,1.51,1.09,1.92,2.34,1.7,2.2-.38,4.68-.41,6.51-1.49,3-1.81,6.06-1.65,9.32-1.44,3.84.25,7.73.41,11.53-.68.75-.22,1.93-.58,2.32-.22,3.31,3,8.51,2.69,11.32,6.51a17.36,17.36,0,0,0,2.29,2.48,4.59,4.59,0,0,0,4.82,1.17c4-1.14,6.51.11,8.49,3.47,1.36,2.31.9,6.31,5.62,5.57,1.1-.17,1.87,4.76,1,6.69a4,4,0,0,1-5.15,2.37,19.57,19.57,0,0,1-7.3-4.59c-3-2.66-3.46-2.48-4.65,1.29-.74,2.34-1.91,4.42-.43,7.15a5.74,5.74,0,0,1-1.19,6.36c-4.4,4.78-4.14,10.17-2.51,15.85.08.27-.09.61-.19,1.12-2-.31-2.3-2.45-3.57-3.46a1.8,1.8,0,0,0-2.21-.34,1.51,1.51,0,0,0-.49,1.75c.41,1.39.94,2.75,1.3,4.15.9,3.52-.33,5.24-3.88,5.54a14,14,0,0,1-7-1.36c-1-.45-2.2-1.2-3,0-.6.87.12,1.81.68,2.63a5.47,5.47,0,0,1,.47,1.31c-5.43.41-5.49.42-5.13,5.84a10.52,10.52,0,0,1-1.76,7.33,1.19,1.19,0,0,1-1.24.51c-.62-.12-.71-.58-.78-1s0-.64,0-1c-.31-4.87-.56-5.05-4.89-2.73-1.17.62-2.05.83-2.9-.37-.65-.92-1.35-2.06-2.68-1.34s-1.27,2.11-.92,3.43c.12.46.31.92.4,1.39.22,1.16.3,2.38-1.16,2.75a2.24,2.24,0,0,1-2.69-1.5c-.27-.58-.54-1.17-.82-1.75-.35-.75-.78-1.5-1.69-1.51-1.31,0-1.41,1.14-1.63,2-.39,1.56-.48,3.21-1,4.72-1,3-2.39,3.64-5.46,3.23a35.13,35.13,0,0,1-9.34-2.16c-1.13-.48-2.68-.84-3.64.28s-.19,2.34.38,3.56c1,2.17-1.08,5.13-3.49,5.13-4.06,0-4.09,0-4,4.38a1.88,1.88,0,0,1-1.5,2.06c-4,1.52-4.14,1.66-2.49,5.22.87,1.9.33,3.34-.29,5-.54,1.47-.49,2.93-2.69,3.42s-1.37,2.38-.71,3.93c1.47,3.46,1.43,3.47-1.81,5.52-2.24,1.42-2.52,3.12-.27,4.35,2.55,1.4,4.14,2.78,3.28,6-.3,1.11.72,2.07,1.48,2.92a19.58,19.58,0,0,1,4.73,8.21c.24.92.75,1.62.35,2.66a4.41,4.41,0,0,0,.81,4.56c1.81,2.16,1.94,4.65,1.94,7.28a38.16,38.16,0,0,0,.84,8.17c.39,1.72,1.09,3,3,3.32a2.14,2.14,0,0,0,2.43-1.14,3.28,3.28,0,0,0-.86-4.34c-4-3.48-2.15-7.68-1.41-11.69.22-1.19,1.39-1.45,2.12-.35,1.94,3,3.8,6,6.8,8a1.07,1.07,0,0,1,.16,1.68c-1.78,1.93-.58,3.44.45,5.16,2,3.28,2.21,6.95,2,10.68-.06.89-.39,2,.77,2.54s1.82-.33,2.47-1c1.16-1.28,2.33-2.32,4.07-.93,2.73-2.65,6.92-1.67,9.82-4a23.53,23.53,0,0,0,5.91-7.54,4.32,4.32,0,0,0-.9-5.69c-2.69-2.45-4.38-5.07-3-8.93.74-2.13-1.8-2.77-2.56-4.57,2.16-1.07,4.34-2.23,3.85-5.61,3.85,2.57,6.84,2,9.49-.91a3.65,3.65,0,0,1,.36-.31c1.54-1.33,4.34-1.51,4.56-4,.27-3,.65-6-.58-9-1-2.35-2-4.8-1.5-7.49.23-1.23.18-2.79,2-2.77,1.43,0,1.79,1.21,1.88,2.38.11,1.49.11,3,2,3.4s3.47.11,4.6-1.7a6.75,6.75,0,0,1,4.19-3.06c3.3-.84,5.55.54,7,4,.91-2.14,1.56-3.66,2.21-5.17,1.73,2.52,3.13,4.7,1.7,7.34-.38.72-.55,2.09,0,2.27,4,1.39,1,5.46,3.07,7.67s2.28,5.63,3.28,8.5c1.22,3.5,1.06,7.31,1.4,11a2.37,2.37,0,0,1-.49,1.79c-2.82,2.35-1.64,5.66-2.18,8.54-.09.45-.15,1.21.09,1.39,3,2.17.8,5.68,2.19,8.25.21.39.36,1.14.14,1.38-3.34,3.82,1.12,6.14,1.8,9.15.5,2.2,2.5.38,4,1a23.85,23.85,0,0,0-1.13,6.9c0,2.53.8,4.22,3.28,5.28,3.55,1.53,4.13,2.7,3.52,6.3a35,35,0,0,1-1.31,4.65c-.55,1.74-.91,3.64-.16,5.22,1.75,3.68,1.6,7.52,1.53,11.38s1.19,7.63,2.34,11.31,1.91,7.42-.4,11.11c-1.91,3-.13,5.89,1.59,8,2.95,3.62,3.42,7.08,1.27,11.09a4.1,4.1,0,0,0-.55,2.31c1.12,7.39-.82,14.75-.27,22.09.45,6.07.94,12.2,3.4,17.92a5.27,5.27,0,0,1-3.19,7.41c-1.52.54-2.4-.48-3-1.7-.88-1.65-.55-3.47-.79-5.22-.43-3.27-2.07-4.49-5.26-4.06-3.76.51-4.88,0-6.44-3.18-.56-1.15-.81-2.44-1.33-3.62a2.45,2.45,0,0,0-2.82-1.36,1.81,1.81,0,0,0-1.69,2c0,1.94-.62,3.13-2.83,2.76a1.11,1.11,0,0,0-.48,0c-1.43.37-7.38,7.88-7.33,9.26a1.57,1.57,0,0,0,.19.92c2.68,2.79,2.22,5-.66,7.53-1.75,1.54-1,4.07.29,5.79,2.9,3.84,4.19,8.28,5.26,12.82a11.33,11.33,0,0,0,2.36,4.18c2.31,3,3,6.55,3.09,10.33a3.91,3.91,0,0,1-3.31-2.21c-1.24-3.4-4.49-5.39-5.42-9.24-.82-3.41-3.34-6.56-6.11-9.13-1.06-1-2-2.15-3.12-3-4.22-3.26-5.74-7.46-5.21-12.75.56-5.56-.72-10.5-5.77-13.95-2.19-1.49-1-3.32.34-4.93a11.86,11.86,0,0,0,2.52-11.28,9.63,9.63,0,0,0-2.09-3.77c-1.69-2-2.67-4.4-3.87-6.67a5.45,5.45,0,0,1-.59-4.67c1.18-2.71.73-5.42.44-8.09-.36-3.33-1-6.58-1-10a10,10,0,0,0-2.89-7,5.92,5.92,0,0,1-1.24-7.12c.33-.72.92-1.69.69-2.25-2.43-5.83,3.36-7.78,5.42-11.43,1.19-2.1,3.81-2.17,6-2.7.3-.15.55-.44.42-.69-.34-.64-.91-.52-1.46-.28a8.68,8.68,0,0,0-7.94,3.69,10.59,10.59,0,0,1-2.37,2.4c-2.17,1.51-3.68,3.11-2.24,6a1.21,1.21,0,0,1-.93,1.82c-.87.14-1-.65-1.24-1.2a12.62,12.62,0,0,1-.55-5.25c.07-6.66-2.17-12.33-7.19-16.73-5.24-4.6-8.23-11.1-13.64-15.57-2.41-2-2.13-5-1.29-7.66a36.05,36.05,0,0,0,1.09-6.12C579.26,582.64,578.85,582.86,578.45,583.29Z" transform="translate(-6.13 -5.95)"/><path class="cls-14" d="M534,654.52c-.6-3.08-.61-5.52,1.28-7.69a14.69,14.69,0,0,0,3.41-10.73c-.08-2.08,0-4.17,0-6.25a8.84,8.84,0,0,1,1-4.17c.54-1,1.25-2,2.59-1.66,1.19.29,1.17,1.45,1.17,2.37,0,2.82,1,5.15,2.41,7.62,2.5,4.5-.58,14.26-5.26,16.68C538.56,651.79,536.78,653.46,534,654.52Z" transform="translate(-6.13 -5.95)"/><path class="cls-15" d="M506.91,604.76c.32.33.69,1,.94.94,4.46-.73,6,2.29,7,5.64,1.08,3.83,2,7.78.18,11.7a5.56,5.56,0,0,0-.07,4.65c-1.28-.12-1.54-1.59-2.62-2a4.84,4.84,0,0,0-1.23-4.85c-2.24-2.66-3.68-5.62-3-9.23.4-2-.89-2.81-2.41-3.59-1-.53-2.84-.49-2.66-2.24.17-1.57,2.13-1.16,2.95-2.11C506.78,603.65,507.35,603.77,506.91,604.76Z" transform="translate(-6.13 -5.95)"/><path class="cls-16" d="M571.4,633.69c-.47-1.49-1-3.14-1.51-4.81-.22-.76-.12-1.67-.87-2.15-1.74-1.12-3.57-1.81-2.51-4.78.7-2,1.06-3.86,2.83-5.17a4,4,0,0,0,.79-1.15c1.15.38,1.34,1.33,1.48,2.27a6,6,0,0,0,2.92,4.7c1.53.88,1.76,2.38,2.05,4.06C577.29,630.66,576.15,633.18,571.4,633.69Z" transform="translate(-6.13 -5.95)"/><path class="cls-17" d="M437.07,654c1.86-2,2,1.11,3.14,1.07-1,2.17-2.42,4.3.34,6.36a1.74,1.74,0,0,1,0,2.59,2.85,2.85,0,0,1-3.54.47c-1-.52-.91-1.45-.59-2.48.56-1.81,1-3.67,1.39-5.53C438,655.55,438.23,654.51,437.07,654Z" transform="translate(-6.13 -5.95)"/><path class="cls-18" d="M427.18,648c.55-1.28.81-2.75,2.3-3.82,1.47,1.65,1.56,3.44.28,4.74s-1.08,3-2.36,4.06c-.09-1,.18-2.14-.84-2.89C425.67,649.08,426.66,648.61,427.18,648Z" transform="translate(-6.13 -5.95)"/><path class="cls-19" d="M465.14,653.05c2.2-1.3,1.08-5.13,4.64-5.82-.21,3.2-.64,6-3.71,7.59Z" transform="translate(-6.13 -5.95)"/><path class="cls-20" d="M479.57,645.33a3.92,3.92,0,0,1-.74-.59c-.68-.85-1.64-1.69-.7-2.88a1.46,1.46,0,0,1,1.27-.34c1.45.38,1.21,1.64,1.23,2.73Z" transform="translate(-6.13 -5.95)"/><path class="cls-21" d="M427.18,648c-.21.69-.41,1.39-.62,2.09-.73.15-2,1-1.58-.75a6.23,6.23,0,0,1,1.36-3.31C426.49,646.76,426.49,647.53,427.18,648Z" transform="translate(-6.13 -5.95)"/><path class="cls-22" d="M616,621.84c1.05-1,2.26-.91,3.6-.71-.36,1.58-1.42,1.71-2.56,1.68C616.71,622.49,616.36,622.17,616,621.84Z" transform="translate(-6.13 -5.95)"/><path class="cls-23" d="M493.13,641.27a5.22,5.22,0,0,1,1.07-.89c.53-.24,1.24-.78,1.65,0s-.34,1.13-.81,1.53a4.34,4.34,0,0,1-.82.46Z" transform="translate(-6.13 -5.95)"/><path class="cls-24" d="M578.45,583.29c.25-.68.7-1.13,1.43-.81.35.15.22.55-.16.74Z" transform="translate(-6.13 -5.95)"/><path class="cls-25" d="M506.91,604.76l-.91-1.07c.4-1.7,2-2.86,1.64-5.25C510,601.41,510,601.41,506.91,604.76Z" transform="translate(-6.13 -5.95)"/></svg>